<?xml version="1.0" standalone="no"?>
<!DOCTYPE svg PUBLIC "-//W3C//DTD SVG 20010904//EN"
 "http://www.w3.org/TR/2001/REC-SVG-20010904/DTD/svg10.dtd">
<svg version="1.0" xmlns="http://www.w3.org/2000/svg"
 width="736.000000pt" height="736.000000pt" viewBox="0 0 736.000000 736.000000"
 preserveAspectRatio="xMidYMid meet">
<metadata>
Created by potrace 1.16, written by Peter Selinger 2001-2019
</metadata>
<g transform="translate(0.000000,736.000000) scale(0.100000,-0.100000)"
fill="#0056b3" stroke="none">
<path d="M5769 5732 c-152 -256 -433 -708 -585 -937 -135 -204 -368 -542 -384
-555 -3 -3 -39 -50 -80 -105 -269 -364 -585 -712 -839 -924 -408 -340 -819
-484 -1182 -415 -248 47 -533 185 -819 398 -177 131 -301 171 -390 126 -25
-13 -61 -36 -80 -51 -19 -16 -56 -35 -80 -44 -73 -24 -216 -45 -308 -45 -47 0
-83 -2 -80 -5 3 -3 81 -21 174 -40 425 -85 743 -192 1079 -362 167 -85 394
-230 683 -438 309 -222 547 -351 802 -435 425 -140 785 -110 1081 91 65 44
161 130 189 169 l19 27 -174 -5 c-295 -8 -405 30 -405 141 0 41 47 122 96 167
22 20 93 85 159 145 67 61 195 177 285 260 91 82 188 170 215 196 28 25 111
101 185 168 304 276 451 463 584 741 123 258 176 494 177 788 0 248 -41 479
-127 709 -33 91 -126 288 -143 305 -4 5 -27 -27 -52 -70z"/>
<path d="M1677 5348 c-133 -231 -146 -561 -36 -920 108 -355 342 -752 696
-1185 103 -126 176 -192 262 -237 109 -57 170 -70 311 -70 170 0 284 27 435
102 72 36 215 130 215 141 -1 3 -24 24 -53 46 -318 242 -745 658 -1038 1010
-255 307 -522 710 -703 1063 -27 50 -52 92 -56 92 -4 0 -19 -19 -33 -42z"/>
</g>
</svg>
